<svg version="1.1" xmlns="http://www.w3.org/2000/svg" xmlns:xlink="http://www.w3.org/1999/xlink" width="91" height="160" viewBox="0,0,91,160"><g transform="translate(-194.5,-100)"><g data-paper-data="{&quot;isPaintingLayer&quot;:true}" fill-rule="nonzero" stroke="#000000" stroke-width="2" stroke-linejoin="miter" stroke-miterlimit="10" stroke-dasharray="" stroke-dashoffset="0" style="mix-blend-mode: normal"><path d="M221.5,123.5c0,-12.42641 10.07359,-22.5 22.5,-22.5c12.42641,0 22.5,10.07359 22.5,22.5c0,12.42641 -10.07359,22.5 -22.5,22.5c-12.42641,0 -22.5,-10.07359 -22.5,-22.5z" fill="#ffffff" stroke-linecap="butt"/><path d="M242.5,147v54c0,0 -19.90144,10.51803 -31.75184,24.85787c-9.00118,10.89208 -11.66515,24.83525 -7.24816,33.14213" fill="none" stroke-linecap="round"/><path d="M242.5,201c0,0 15.11045,7.91108 24.54426,22.65168c6.02693,9.41725 9.1451,23.98937 6.45574,33.34832" fill="none" stroke-linecap="round"/><path d="M195.5,201c0,0 6.77158,-18.98053 17.11079,-26.51982c12.74473,-9.29339 29.88921,-13.48018 29.88921,-13.48018" fill="none" stroke-linecap="round"/><path d="M243.5,162c0,0 17.35103,5.04979 25.25633,12.76227c7.90529,7.71248 15.74367,27.23773 15.74367,27.23773" fill="none" stroke-linecap="round"/></g></g></svg>